<svg version="1.0" xmlns="http://www.w3.org/2000/svg" width="386.667" height="386.667" viewBox="0 0 290 290"><path d="M129.4 16.6c-2 .7-4.5 2.1-5.5 3.1s-13.1 24.4-26.9 52L71.9 122H54c-9.8 0-20.3.5-23.2 1.1-12 2.5-22.6 10.8-27.6 21.7l-2.6 5.7L.5 197c-.1 50.1.1 52.5 5.2 60.3 5.7 8.9 14.6 14.9 25.5 17.1 4.5.9 31.4 1.2 106.6 1.1 108.7-.1 104.9.1 114.7-5.5 11.5-6.6 17.1-15.2 19-29 .4-2.5 1-6.3 1.5-8.5s2.5-13.7 4.5-25.5 3.8-22.6 4.1-24c.2-1.4.6-3.9.9-5.5 2.7-15.8 5.7-32.7 6.4-36 2.8-14.4-3.5-28.8-15.8-36.3-10.2-6.3-11.4-6.5-48.6-6.8-18.7-.2-34.8-.3-35.7-.4-1.7 0-1.8-1.7-1.8-20.9 0-17.5-.3-21.9-1.8-26.9-6.1-19.4-25.3-33.1-48.6-34.7-1.9-.1-5.1.4-7.2 1.1zm18.4 26.3c4.8 2.5 8.7 6.6 10.8 11.6 1.5 3.4 1.8 7.9 1.9 31 .1 14.8.5 27.9.9 29 .4 1.1 2.1 3.1 3.9 4.5l3.1 2.5 43.2.5c41.9.5 43.3.6 46.1 2.6 5.6 4.1 5.9 6.3 3.3 21.4-1.2 7.4-2.4 14.4-2.6 15.5-1.1 5.5-1.6 8.3-2 11-.6 4.2-1.1 6.7-2.9 17-.9 4.9-1.8 10.1-2 11.5-.2 1.4-1.6 9.2-3 17.5-1.5 8.2-3 17.3-3.5 20.2-.5 2.8-1.6 6.4-2.6 7.8-3.6 5.6-2.6 5.5-78.5 5.5H94l-.1-57.8v-57.7l23.8-47.7C130.8 62.5 142.1 41 142.8 41c.7 0 2.9.9 5 1.9zm-81 155.9L67 252H52.5c-16.6 0-20.3-1-23.5-6.2-1.9-3.2-2-4.8-2-47.5.1-43.6.1-44.2 2.2-47 1.2-1.5 2.3-3 2.4-3.1 1.2-1.7 9.1-2.7 21-2.7l13.9.1.3 53.2z"/></svg>