<svg width="32" height="22" fill="none" xmlns="http://www.w3.org/2000/svg"><path d="M31.917 13.348l-1.62-2.478a3.866 3.866 0 00-3.25-1.749h-4.19v-2.41a2.671 2.671 0 00-2.669-2.67h-7.841A4.986 4.986 0 007.459 0 4.984 4.984 0 002.48 4.979c0 1.726.884 3.249 2.222 4.142H.508a.508.508 0 100 1.016h5.08v1.016H3.554a.508.508 0 100 1.016h2.032v1.015H.508a.508.508 0 100 1.017h5.08v2.25a2.548 2.548 0 00-1.525 2.328v.5c0 .282.228.509.509.509h4.505a2.811 2.811 0 002.732 2.173 2.81 2.81 0 002.733-2.173h9.773a2.812 2.812 0 002.733 2.173c1.329 0 2.444-.93 2.733-2.173h1.711c.28 0 .508-.227.508-.508v-5.654a.508.508 0 00-.083-.278zm-28.42-8.37a3.968 3.968 0 013.962-3.962 3.967 3.967 0 013.963 3.963 3.967 3.967 0 01-3.963 3.963 3.968 3.968 0 01-3.963-3.963zm3.106 9.223H7.62a.508.508 0 100-1.017H6.603V12.17h3.556a.508.508 0 100-1.016H6.603v-1.016h6.603a.508.508 0 000-1.016h-2.99a4.976 4.976 0 002.218-4.064h7.755c.91 0 1.652.742 1.652 1.653v9.522H6.603v-2.031zm15.238 4.57H14.59a2.796 2.796 0 00-.722-1.523h7.974v1.524zM6.61 17.249h3.142c-.382.413-.642.94-.721 1.524H5.079a1.532 1.532 0 011.53-1.524zm5.2 3.697a1.794 1.794 0 01-1.793-1.792c0-.988.805-1.792 1.792-1.792.989 0 1.793.804 1.793 1.792s-.804 1.792-1.793 1.792zm15.238 0a1.794 1.794 0 01-1.792-1.792c0-.988.804-1.792 1.792-1.792s1.792.804 1.792 1.792-.804 1.792-1.792 1.792zm3.936-2.173h-1.157a2.81 2.81 0 00-2.78-2.427 2.81 2.81 0 00-2.779 2.427h-1.41v-8.635h4.188c.976 0 1.874.482 2.401 1.288l1.537 2.352v4.995z" fill="#fff"/><path d="M27.878 19.153a.83.83 0 11-1.661 0 .83.83 0 011.661 0zm-15.238 0a.831.831 0 11-1.662 0 .831.831 0 011.662 0zM8.127 4.979V2.757a.508.508 0 10-1.016 0v2.056L6.074 6.235a.507.507 0 10.821.598L8.03 5.278a.508.508 0 00.097-.3zm18.749 5.666h-.971a.508.508 0 00-.508.508v3.555c0 .281.227.508.508.508h3.418a.874.874 0 00.764-.44.872.872 0 00.003-.88l-1.187-2.075a2.34 2.34 0 00-2.027-1.176zm-.463 3.556v-2.54h.463c.473 0 .911.254 1.145.664l1.072 1.876h-2.68z" fill="#fff"/></svg>