<svg width="38" height="34" fill="none" xmlns="http://www.w3.org/2000/svg"><path fill-rule="evenodd" clip-rule="evenodd" d="M15.904.898c.274-.546.885-.898 1.56-.898 1.81 0 3.546.637 4.826 1.771 1.28 1.135 1.999 2.673 1.999 4.277v4.536h7.943c.739-.006 1.47.13 2.144.397.677.27 1.28.666 1.767 1.162a4.41 4.41 0 011.053 1.712 4.04 4.04 0 01.145 1.945l-2.355 13.608c-.185 1.081-.805 2.068-1.746 2.776-.938.707-2.132 1.09-3.363 1.08H5.518c-1.358 0-2.66-.478-3.62-1.329-.96-.85-1.5-2.004-1.5-3.207V18.144c0-1.203.54-2.357 1.5-3.208.96-.85 2.262-1.328 3.62-1.328h4.01L15.904.898zm-3.56 14.543L18.5 3.167c.515.145.988.398 1.376.743.64.567 1 1.336 1 2.138v6.048c0 .835.764 1.512 1.706 1.512h9.679c.246-.003.491.042.717.132.226.09.427.222.59.387.162.166.281.36.35.571.07.21.086.431.049.648l-2.355 13.609c-.062.36-.269.689-.582.925a1.845 1.845 0 01-1.125.36H12.344v-14.8zM8.93 30.24V16.632H5.518c-.452 0-.887.16-1.207.443-.32.283-.5.668-.5 1.069v10.584c0 .4.18.785.5 1.069.32.283.755.443 1.207.443h3.413z" fill="#00A046"/></svg>