<svg width="184" height="46" fill="none" xmlns="http://www.w3.org/2000/svg"><path fill-rule="evenodd" clip-rule="evenodd" d="M17.099 7.433c.3-.6.971-.986 1.712-.986 1.987 0 3.893.7 5.298 1.945 1.405 1.245 2.195 2.934 2.195 4.695v4.98h8.72a6.243 6.243 0 012.353.436c.743.295 1.405.73 1.94 1.275a4.84 4.84 0 011.156 1.88c.227.692.281 1.421.159 2.135L38.047 38.73c-.204 1.187-.884 2.27-1.917 3.048-1.03.775-2.34 1.196-3.692 1.185H5.698c-1.491 0-2.92-.525-3.974-1.459-1.054-.934-1.646-2.2-1.646-3.52v-11.62c0-1.32.592-2.587 1.646-3.52 1.053-.934 2.483-1.46 3.973-1.46H10.1l6.999-13.952zM13.19 23.398l6.758-13.474c.565.16 1.084.437 1.51.815.703.623 1.098 1.467 1.098 2.348v6.639c0 .917.839 1.66 1.873 1.66h10.624c.272-.003.541.047.789.145.247.099.468.244.646.425.178.182.31.396.386.627.075.23.094.473.053.71 0 0 0 .001 0 0l-2.585 14.94a1.622 1.622 0 01-.64 1.016c-.344.26-.782.4-1.234.395H13.191V23.398zM9.444 39.644V24.706H5.697c-.496 0-.973.174-1.324.486a1.57 1.57 0 00-.549 1.173v11.62c0 .44.197.862.549 1.173.351.311.828.486 1.324.486h3.747z" fill="#00A046"/><path d="M61.244 9.948c-.896 0-1.783.13-2.66.392-.877.243-1.736.542-2.576.896L54.664 7.82A17.1 17.1 0 0157.8 6.812a15.247 15.247 0 013.528-.392c2.95 0 5.236.906 6.86 2.716 1.624 1.792 2.436 4.322 2.436 7.588 0 2.053-.345 3.855-1.036 5.404a7.832 7.832 0 01-3.192 3.584c-1.419.84-3.239 1.26-5.46 1.26-1.139 0-2.175-.084-3.108-.252a16.628 16.628 0 01-2.8-.784V22.38c1.064.336 2.044.598 2.94.784.915.187 1.82.28 2.716.28 1.717 0 3.043-.42 3.976-1.26.933-.858 1.437-2.137 1.512-3.836h-8.68v-3.472h8.652c-.056-1.55-.523-2.753-1.4-3.612-.877-.877-2.044-1.316-3.5-1.316zm29.822 16.744H86.25l-7.252-10.136v10.136H74.77V6.7h4.228v9.688L86.166 6.7h4.508l-7.28 9.604 7.672 10.388zm20.114-10.024c0 2.072-.345 3.883-1.036 5.432-.672 1.53-1.708 2.726-3.108 3.584-1.4.859-3.192 1.288-5.376 1.288-2.165 0-3.957-.43-5.376-1.288-1.4-.858-2.445-2.063-3.136-3.612-.672-1.55-1.008-3.36-1.008-5.432 0-2.072.336-3.873 1.008-5.404.69-1.53 1.736-2.716 3.136-3.556 1.419-.858 3.22-1.288 5.404-1.288 2.165 0 3.948.43 5.348 1.288 1.4.84 2.436 2.035 3.108 3.584.691 1.53 1.036 3.332 1.036 5.404zm-14.588 0c0 2.09.401 3.743 1.204 4.956.803 1.195 2.09 1.792 3.864 1.792 1.811 0 3.108-.597 3.892-1.792.784-1.213 1.176-2.865 1.176-4.956 0-2.11-.392-3.761-1.176-4.956-.784-1.194-2.072-1.792-3.864-1.792-1.792 0-3.09.598-3.892 1.792-.803 1.195-1.204 2.847-1.204 4.956zM131.7 26.692h-4.228v-8.624h-7.924v8.624h-4.228V6.7h4.228v7.84h7.924V6.7h4.228v19.992zm23.174-10.024c0 2.072-.345 3.883-1.036 5.432-.672 1.53-1.708 2.726-3.108 3.584-1.4.859-3.192 1.288-5.376 1.288-2.165 0-3.957-.43-5.376-1.288-1.4-.858-2.445-2.063-3.136-3.612-.672-1.55-1.008-3.36-1.008-5.432 0-2.072.336-3.873 1.008-5.404.691-1.53 1.736-2.716 3.136-3.556 1.419-.858 3.22-1.288 5.404-1.288 2.166 0 3.948.43 5.348 1.288 1.4.84 2.436 2.035 3.108 3.584.691 1.53 1.036 3.332 1.036 5.404zm-14.588 0c0 2.09.402 3.743 1.204 4.956.803 1.195 2.091 1.792 3.864 1.792 1.811 0 3.108-.597 3.892-1.792.784-1.213 1.176-2.865 1.176-4.956 0-2.11-.392-3.761-1.176-4.956-.784-1.194-2.072-1.792-3.864-1.792-1.792 0-3.089.598-3.892 1.792-.802 1.195-1.204 2.847-1.204 4.956zm27.185 10.024l-4.816-15.68h-.112l.084 1.68c.038.747.075 1.55.112 2.408.038.84.056 1.606.056 2.296v9.296h-3.78V6.7h5.768l4.732 15.288h.084L174.612 6.7h5.768v19.992h-3.948v-9.464c0-.635.01-1.363.028-2.184.038-.821.066-1.596.084-2.324l.084-1.68h-.112l-5.152 15.652h-3.892zM61.064 39.112c0 .74-.123 1.387-.37 1.94-.24.547-.61.974-1.11 1.28-.5.307-1.14.46-1.92.46-.773 0-1.413-.153-1.92-.46a2.822 2.822 0 01-1.12-1.29c-.24-.553-.36-1.2-.36-1.94s.12-1.383.36-1.93c.247-.546.62-.97 1.12-1.27.507-.306 1.15-.46 1.93-.46.773 0 1.41.154 1.91.46.5.3.87.727 1.11 1.28.247.547.37 1.19.37 1.93zm-5.21 0c0 .747.143 1.337.43 1.77.287.427.747.64 1.38.64.647 0 1.11-.213 1.39-.64.28-.433.42-1.023.42-1.77 0-.753-.14-1.343-.42-1.77-.28-.426-.74-.64-1.38-.64-.64 0-1.103.214-1.39.64-.287.427-.43 1.017-.43 1.77zm12.539 3.58h-1.51v-3.08h-2.83v3.08h-1.51v-7.14h1.51v2.8h2.83v-2.8h1.51v7.14zm7.446 0h-1.51v-5.88h-1.75l-.13 1c-.04.36-.086.727-.14 1.1a29.45 29.45 0 01-.15 1.05c-.053.327-.106.617-.16.87a4.395 4.395 0 01-.35 1.06c-.14.293-.336.517-.59.67-.246.154-.57.23-.97.23-.26 0-.5-.037-.72-.11v-1.24c.087.027.17.05.25.07.087.02.18.03.28.03.194 0 .34-.1.44-.3.107-.206.214-.59.32-1.15.04-.213.097-.547.17-1a88.9 88.9 0 00.24-1.59c.094-.613.18-1.263.26-1.95h4.51v7.14zm6.171 0l-.52-1.7h-2.6l-.52 1.7h-1.63l2.52-7.17h1.85l2.53 7.17h-1.63zm-1.4-4.63a35.446 35.446 0 00-.13-.43l-.16-.53c-.053-.18-.096-.336-.13-.47-.033.134-.08.3-.14.5-.053.194-.106.38-.16.56a5.068 5.068 0 01-.11.37l-.51 1.66h1.86l-.52-1.66zm9.685-4.86c-.034.347-.13.654-.29.92-.16.26-.41.464-.75.61-.34.147-.797.22-1.37.22-.587 0-1.047-.07-1.38-.21-.327-.146-.56-.35-.7-.61-.14-.26-.224-.57-.25-.93h1.33c.033.367.126.61.28.73.153.12.403.18.75.18.286 0 .52-.063.7-.19.187-.133.297-.373.33-.72h1.35zm-5.75 2.35h1.36v3.45c0 .167-.004.353-.01.56l-.02.61c-.007.194-.013.364-.02.51-.007.14-.014.237-.02.29h.03l3.3-5.42h1.81v7.14h-1.35v-3.43c0-.18.003-.377.01-.59l.02-.63c.013-.2.023-.373.03-.52a6.16 6.16 0 01.03-.3h-.04l-3.31 5.47h-1.82v-7.14zm14.082 7.14h-1.51v-3.08h-2.83v3.08h-1.51v-7.14h1.51v2.8h2.83v-2.8h1.51v7.14zm1.387-2.145a1.428 1.428 0 01-.045-.28 3.702 3.702 0 010-.51c.006-.1.021-.195.045-.285h2.655a1.6 1.6 0 01.045.285c.006.1.01.185.01.255s-.004.155-.01.255a1.5 1.5 0 01-.045.28h-2.655zm7.063 2.145l-1.72-5.6h-.04l.03.6.04.86c.013.3.02.574.02.82v3.32h-1.35v-7.14h2.06l1.69 5.46h.03l1.79-5.46h2.06v7.14h-1.41v-3.38c0-.226.003-.486.01-.78.013-.293.023-.57.03-.83l.03-.6h-.04l-1.84 5.59h-1.39zm10.783 0l-.52-1.7h-2.6l-.52 1.7h-1.63l2.52-7.17h1.85l2.53 7.17h-1.63zm-1.4-4.63c-.033-.113-.077-.256-.13-.43a52.76 52.76 0 01-.16-.53c-.053-.18-.097-.336-.13-.47-.033.134-.08.3-.14.5-.053.194-.107.38-.16.56a5.12 5.12 0 01-.11.37l-.51 1.66h1.86l-.52-1.66zm6.214-2.51c.92 0 1.59.2 2.01.6.427.393.64.937.64 1.63 0 .414-.086.804-.26 1.17-.173.36-.463.65-.87.87-.4.22-.946.33-1.64.33h-.65v2.54h-1.51v-7.14h2.28zm-.08 1.24h-.69v2.12h.5c.427 0 .764-.083 1.01-.25.254-.173.38-.45.38-.83 0-.693-.4-1.04-1.2-1.04zm9.9 5.9h-1.72l-2.59-3.62v3.62h-1.51v-7.14h1.51v3.46l2.56-3.46h1.61l-2.6 3.43 2.74 3.71zm5.008 0h-4.11v-7.14h4.11v1.24h-2.6v1.57h2.42v1.24h-2.42v1.84h2.6v1.25zm4.236 0h-1.51v-5.88h-1.94v-1.26h5.39v1.26h-1.94v5.88z" fill="#00A046"/></svg>