<svg width="183" height="45" fill="none" xmlns="http://www.w3.org/2000/svg"><path fill-rule="evenodd" clip-rule="evenodd" d="M17.021 6.927c.3-.599.972-.985 1.712-.985 1.987 0 3.893.7 5.299 1.944 1.405 1.246 2.194 2.934 2.194 4.695v4.98h8.72a6.243 6.243 0 012.353.436c.744.296 1.406.73 1.94 1.276a4.84 4.84 0 011.156 1.879c.227.693.282 1.421.16 2.135l-2.586 14.938c0 .001 0 0 0 0-.203 1.187-.884 2.27-1.916 3.048-1.03.776-2.34 1.196-3.692 1.185H5.62c-1.49 0-2.92-.524-3.974-1.458C.592 40.066 0 38.8 0 37.479v-11.62c0-1.32.592-2.586 1.646-3.52C2.7 21.405 4.129 20.88 5.62 20.88h4.402l7-13.953zm-3.908 15.965l6.759-13.474a3.87 3.87 0 011.51.816c.703.622 1.098 1.467 1.098 2.347v6.64c0 .916.838 1.66 1.873 1.66h10.624c.272-.003.54.046.788.145.248.098.469.243.647.425.178.181.31.395.385.626.076.231.094.474.053.711l-2.585 14.94a1.621 1.621 0 01-.639 1.016 2.02 2.02 0 01-1.234.395H13.113V22.892zM9.367 39.14V24.2H5.62c-.497 0-.973.175-1.325.486a1.57 1.57 0 00-.548 1.174v11.619c0 .44.197.862.548 1.173.352.312.828.487 1.325.487h3.747z" fill="#00A046"/><path d="M61.166 9.443c-.896 0-1.782.13-2.66.392a20.88 20.88 0 00-2.576.896l-1.344-3.416a17.1 17.1 0 013.136-1.008 15.247 15.247 0 013.528-.392c2.95 0 5.236.905 6.86 2.716 1.624 1.792 2.436 4.321 2.436 7.588 0 2.053-.345 3.854-1.036 5.404a7.832 7.832 0 01-3.192 3.584c-1.418.84-3.238 1.26-5.46 1.26-1.138 0-2.174-.084-3.108-.252a16.628 16.628 0 01-2.8-.784v-3.556c1.064.336 2.044.597 2.94.784.915.186 1.82.28 2.716.28 1.718 0 3.043-.42 3.976-1.26.934-.859 1.438-2.138 1.512-3.836h-8.68V14.37h8.652c-.056-1.55-.522-2.754-1.4-3.612-.877-.878-2.044-1.316-3.5-1.316zM90.99 26.187h-4.816L78.92 16.05v10.136h-4.228V6.195h4.228v9.688l7.168-9.688h4.508l-7.28 9.604 7.672 10.388zm20.113-10.024c0 2.072-.345 3.882-1.036 5.432-.672 1.53-1.708 2.725-3.108 3.584-1.4.858-3.192 1.288-5.376 1.288-2.165 0-3.957-.43-5.376-1.288-1.4-.859-2.445-2.063-3.136-3.612-.672-1.55-1.008-3.36-1.008-5.432 0-2.072.336-3.874 1.008-5.404.691-1.531 1.736-2.716 3.136-3.556 1.42-.859 3.22-1.288 5.404-1.288 2.166 0 3.948.429 5.348 1.288 1.4.84 2.436 2.034 3.108 3.584.691 1.53 1.036 3.332 1.036 5.404zm-14.588 0c0 2.09.402 3.742 1.204 4.956.803 1.194 2.091 1.792 3.864 1.792 1.811 0 3.108-.598 3.892-1.792.784-1.214 1.176-2.866 1.176-4.956 0-2.11-.392-3.762-1.176-4.956-.784-1.195-2.072-1.792-3.864-1.792-1.792 0-3.089.597-3.892 1.792-.802 1.194-1.204 2.846-1.204 4.956zm35.11 10.024h-4.228v-8.624h-7.924v8.624h-4.228V6.195h4.228v7.84h7.924v-7.84h4.228v19.992zm23.174-10.024c0 2.072-.346 3.882-1.036 5.432-.672 1.53-1.708 2.725-3.108 3.584-1.4.858-3.192 1.288-5.376 1.288-2.166 0-3.958-.43-5.376-1.288-1.4-.859-2.446-2.063-3.136-3.612-.672-1.55-1.008-3.36-1.008-5.432 0-2.072.336-3.874 1.008-5.404.69-1.531 1.736-2.716 3.136-3.556 1.418-.859 3.22-1.288 5.404-1.288 2.165 0 3.948.429 5.348 1.288 1.4.84 2.436 2.034 3.108 3.584.69 1.53 1.036 3.332 1.036 5.404zm-14.588 0c0 2.09.401 3.742 1.204 4.956.802 1.194 2.09 1.792 3.864 1.792 1.81 0 3.108-.598 3.892-1.792.784-1.214 1.176-2.866 1.176-4.956 0-2.11-.392-3.762-1.176-4.956-.784-1.195-2.072-1.792-3.864-1.792-1.792 0-3.09.597-3.892 1.792-.803 1.194-1.204 2.846-1.204 4.956zm27.185 10.024l-4.816-15.68h-.112l.084 1.68c.037.746.075 1.549.112 2.408.037.84.056 1.605.056 2.296v9.296h-3.78V6.195h5.768l4.732 15.288h.084l5.012-15.288h5.768v19.992h-3.948v-9.464c0-.635.009-1.363.028-2.184.037-.822.065-1.596.084-2.324l.084-1.68h-.112l-5.152 15.652h-3.892zm-106.41 12.42c0 .74-.123 1.386-.37 1.94-.24.546-.61.973-1.11 1.28-.5.306-1.14.46-1.92.46-.773 0-1.413-.154-1.92-.46a2.821 2.821 0 01-1.12-1.29c-.24-.554-.36-1.2-.36-1.94s.12-1.384.36-1.93c.247-.547.62-.97 1.12-1.27.507-.307 1.15-.46 1.93-.46.774 0 1.41.153 1.91.46.5.3.87.726 1.11 1.28.247.546.37 1.19.37 1.93zm-5.21 0c0 .746.144 1.336.43 1.77.287.426.747.64 1.38.64.647 0 1.11-.214 1.39-.64.28-.434.42-1.024.42-1.77 0-.754-.14-1.344-.42-1.77-.28-.427-.74-.64-1.38-.64-.64 0-1.103.213-1.39.64-.286.426-.43 1.016-.43 1.77zm12.54 3.58h-1.51v-3.08h-2.83v3.08h-1.51v-7.14h1.51v2.8h2.83v-2.8h1.51v7.14zm7.446 0h-1.51v-5.88h-1.75l-.13 1c-.04.36-.087.726-.14 1.1-.047.366-.097.716-.15 1.05-.053.326-.107.616-.16.87a4.39 4.39 0 01-.35 1.06c-.14.293-.337.516-.59.67-.247.153-.57.23-.97.23-.26 0-.5-.037-.72-.11v-1.24c.087.026.17.05.25.07.087.02.18.03.28.03.193 0 .34-.1.44-.3.107-.207.213-.59.32-1.15.04-.214.097-.547.17-1a88.9 88.9 0 00.24-1.59c.093-.614.18-1.264.26-1.95h4.51v7.14zm6.171 0l-.52-1.7h-2.6l-.52 1.7h-1.63l2.52-7.17h1.85l2.53 7.17h-1.63zm-1.4-4.63a40.162 40.162 0 00-.13-.43c-.053-.174-.107-.35-.16-.53-.053-.18-.097-.337-.13-.47-.033.133-.08.3-.14.5-.053.193-.107.38-.16.56a5.157 5.157 0 01-.11.37l-.51 1.66h1.86l-.52-1.66zm9.684-4.86c-.033.346-.13.653-.29.92-.16.26-.41.463-.75.61-.34.146-.796.22-1.37.22-.586 0-1.046-.07-1.38-.21-.326-.147-.56-.35-.7-.61-.14-.26-.223-.57-.25-.93h1.33c.034.366.127.61.28.73.154.12.404.18.75.18.287 0 .52-.064.7-.19.187-.134.297-.374.33-.72h1.35zm-5.75 2.35h1.36v3.45c0 .166-.003.353-.01.56l-.02.61c-.006.193-.013.363-.02.51-.006.14-.013.236-.02.29h.03l3.3-5.42h1.81v7.14h-1.35v-3.43c0-.18.004-.377.01-.59l.02-.63c.014-.2.024-.374.03-.52.014-.154.024-.254.03-.3h-.04l-3.31 5.47h-1.82v-7.14zm14.083 7.14h-1.51v-3.08h-2.83v3.08H92.7v-7.14h1.51v2.8h2.83v-2.8h1.51v7.14zm1.386-2.145a1.435 1.435 0 01-.045-.28c-.006-.1-.01-.185-.01-.255s.004-.155.01-.255a1.6 1.6 0 01.045-.285h2.655c.024.09.039.185.045.285a3.702 3.702 0 010 .51 1.35 1.35 0 01-.045.28h-2.655zM107 42.187l-1.72-5.6h-.04l.03.6c.013.266.027.553.04.86.013.3.02.573.02.82v3.32h-1.35v-7.14h2.06l1.69 5.46h.03l1.79-5.46h2.06v7.14h-1.41v-3.38c0-.227.003-.487.01-.78.013-.294.023-.57.03-.83l.03-.6h-.04l-1.84 5.59H107zm10.784 0l-.52-1.7h-2.6l-.52 1.7h-1.63l2.52-7.17h1.85l2.53 7.17h-1.63zm-1.4-4.63l-.13-.43a37.96 37.96 0 01-.16-.53 10.08 10.08 0 01-.13-.47c-.034.133-.08.3-.14.5-.054.193-.107.38-.16.56a5.685 5.685 0 01-.11.37l-.51 1.66h1.86l-.52-1.66zm6.214-2.51c.92 0 1.59.2 2.01.6.427.393.64.936.64 1.63 0 .413-.087.803-.26 1.17-.173.36-.463.65-.87.87-.4.22-.947.33-1.64.33h-.65v2.54h-1.51v-7.14h2.28zm-.08 1.24h-.69v2.12h.5c.427 0 .763-.084 1.01-.25.253-.174.38-.45.38-.83 0-.694-.4-1.04-1.2-1.04zm9.899 5.9h-1.72l-2.59-3.62v3.62h-1.51v-7.14h1.51v3.46l2.56-3.46h1.61l-2.6 3.43 2.74 3.71zm5.009 0h-4.11v-7.14h4.11v1.24h-2.6v1.57h2.42v1.24h-2.42v1.84h2.6v1.25zm4.236 0h-1.51v-5.88h-1.94v-1.26h5.39v1.26h-1.94v5.88z" fill="#fff"/></svg>