<svg width="23" height="22" fill="none" xmlns="http://www.w3.org/2000/svg"><path d="M21.463 16.517l-3.194-3.195a2.276 2.276 0 00-1.617-.662c-.64 0-1.242.251-1.698.707L13.71 14.61c-.966-.537-2.25-1.275-3.583-2.608-1.332-1.332-2.07-2.613-2.61-3.584l1.245-1.244c.925-.927.944-2.414.042-3.315L5.61.665A2.266 2.266 0 003.993 0a2.39 2.39 0 00-1.669.678C2.05.898.674 2.114.161 4.62c-.718 3.507.932 6.881 5.695 11.647C11.178 21.587 15.721 22 16.986 22c.264 0 .423-.016.465-.021 2.482-.291 3.37-1.393 4.02-2.198.84-1.043.837-2.415-.008-3.264zm-1.06 2.403c-.61.757-1.186 1.471-3.111 1.697-.001 0-.107.012-.306.012-1.132 0-5.211-.385-10.16-5.332C2.433 10.902.891 7.888 1.504 4.895c.448-2.186 1.635-3.115 1.682-3.15l.04-.03.037-.036a1.03 1.03 0 01.73-.308c.248 0 .478.093.647.263l3.194 3.194c.368.368.348.985-.043 1.377L6.384 7.611l-.023.025c-.367.404-.324.95-.122 1.305.583 1.052 1.382 2.493 2.918 4.03 1.532 1.532 2.97 2.33 4.02 2.911.105.06.321.158.593.158.32 0 .615-.135.832-.383l1.321-1.32c.197-.197.456-.306.728-.306.25 0 .48.093.649.261l3.192 3.193c.405.407.238 1.03-.09 1.435zM13.388 3.36c1.178.135 2.566.849 3.534 1.818.978.977 1.693 2.379 1.823 3.57a.686.686 0 101.363-.148c-.163-1.506-1.013-3.188-2.216-4.392-1.192-1.192-2.858-2.04-4.347-2.21a.686.686 0 10-.157 1.362zm-.64 2.872c.637.073 1.519.546 2.096 1.124.583.582 1.056 1.473 1.126 2.117a.686.686 0 001.363-.148c-.119-1.1-.849-2.268-1.52-2.939-.664-.665-1.821-1.391-2.909-1.516a.685.685 0 10-.156 1.362z" fill="#fff"/></svg>